<svg xmlns="http://www.w3.org/2000/svg" xmlns:xlink="http://www.w3.org/1999/xlink" width="296" height="303" viewBox="0 0 296 303">
  <defs>
    <clipPath id="clip-Custom_Size_1">
      <rect width="296" height="303"/>
    </clipPath>
  </defs>
  <g id="Custom_Size_1" data-name="Custom Size – 1" clip-path="url(#clip-Custom_Size_1)">
    <g id="Group_2" data-name="Group 2" transform="translate(-110 -90)">
      <g id="Path_4" data-name="Path 4" transform="translate(116 100.188)" fill="none">
        <path d="M44.439,0h193.83c24.543,0,44.439,21.1,44.439,47.134V238.678c0,26.031-19.9,47.134-44.439,47.134H44.439C19.9,285.812,0,264.71,0,238.678V47.134C0,21.1,19.9,0,44.439,0Z" stroke="none"/>
        <path d="M 44.43907165527344 1 C 38.58184814453125 1 32.8997802734375 2.21673583984375 27.55070495605469 4.616424560546875 C 22.37948608398438 6.936279296875 17.73406982421875 10.2586669921875 13.74349975585938 14.4912109375 C 9.7490234375 18.72793579101563 6.61248779296875 23.66244506835938 4.421112060546875 29.15771484375 C 2.151031494140625 34.85025024414063 1 40.89834594726563 1 47.13395690917969 L 1 238.6783905029297 C 1 244.9140014648438 2.151031494140625 250.9620971679688 4.421112060546875 256.6546325683594 C 6.61248779296875 262.14990234375 9.7490234375 267.0844116210938 13.74349975585938 271.3211364746094 C 17.73406982421875 275.5536804199219 22.37948608398438 278.8760681152344 27.55070495605469 281.1959228515625 C 32.8997802734375 283.5956115722656 38.58184814453125 284.8123474121094 44.43907165527344 284.8123474121094 L 238.2690734863281 284.8123474121094 C 244.1262817382813 284.8123474121094 249.808349609375 283.5956115722656 255.1574249267578 281.1959228515625 C 260.3286437988281 278.8760681152344 264.9740600585938 275.5536804199219 268.9646301269531 271.3211364746094 C 272.9591064453125 267.0844116210938 276.0956420898438 262.14990234375 278.2870178222656 256.6546325683594 C 280.5570983886719 250.9620971679688 281.7081298828125 244.9140014648438 281.7081298828125 238.6783905029297 L 281.7081298828125 47.13395690917969 C 281.7081298828125 40.89834594726563 280.5570983886719 34.85025024414063 278.2870178222656 29.15771484375 C 276.0956420898438 23.66244506835938 272.9591064453125 18.72793579101563 268.9646301269531 14.4912109375 C 264.9740600585938 10.2586669921875 260.3286437988281 6.936279296875 255.1574249267578 4.616424560546875 C 249.808349609375 2.21673583984375 244.1262817382813 1 238.2690734863281 1 L 44.43907165527344 1 M 44.43907165527344 0 L 238.2690734863281 0 C 262.8120727539063 0 282.7081298828125 21.10260009765625 282.7081298828125 47.13395690917969 L 282.7081298828125 238.6783905029297 C 282.7081298828125 264.7097473144531 262.8120727539063 285.8123474121094 238.2690734863281 285.8123474121094 L 44.43907165527344 285.8123474121094 C 19.89605712890625 285.8123474121094 0 264.7097473144531 0 238.6783905029297 L 0 47.13395690917969 C 0 21.10260009765625 19.89605712890625 0 44.43907165527344 0 Z" stroke="none" fill="#f6e9e9"/>
      </g>
      <g id="Group_1" data-name="Group 1" transform="translate(10 -40)">
        <line id="Line_1" data-name="Line 1" y2="182" transform="translate(224.5 168.5)" fill="none" stroke="#f6e9e9" stroke-width="10"/>
        <path id="Path_1" data-name="Path 1" d="M373.5,351.9s-38.467,19.029-62.534,42.292c-27.781,26.852-35.635,59.458,62.534,73.333" transform="translate(-147 -121)" fill="none" stroke="#f6e9e9" stroke-width="10"/>
        <line id="Line_2" data-name="Line 2" y2="181" transform="translate(265.5 168.5)" fill="none" stroke="#f6e9e9" stroke-width="10"/>
        <path id="Path_3" data-name="Path 3" d="M414.5,286.5c192.333,19.96,0,85.075,0,85.075" transform="translate(-149 -27)" fill="none" stroke="#f6e9e9" stroke-width="10"/>
        <path id="Path_2" data-name="Path 2" d="M414.5,286.5c192.333,20.478,0,87.282,0,87.282" transform="translate(-149 -112.782)" fill="none" stroke="#f6e9e9" stroke-width="10"/>
      </g>
      <text id="DirtyBits" transform="translate(192 360)" fill="#f6e9e9" font-size="40" font-family="SegoeUI-Italic, Segoe UI" font-style="italic"><tspan x="0" y="0">DirtyBits</tspan></text>
    </g>
  </g>
</svg>
